<svg role="img" viewBox="0 0 600 600" xmlns="http://www.w3.org/2000/svg" id="Kalilinux--Streamline-Simple-Icons" height="600" width="600">
  <desc>
    Kalilinux Streamline Icon: https://streamlinehq.com
  </desc>
  <title>Kali Linux</title>
  <path d="M319.45 148.575s-49.25 -3.25 -133.175 23c-85.5 26.75 -134 64.67500000000001 -134 64.67500000000001s127.45 -71.175 271.3 -75.2zm183.775 77.375 6.425 -0.42500000000000004s-36.7 -44.5 -106.94999999999999 -66.2c39.5 16.05 73.85000000000001 37.325 100.52499999999999 66.625zm10.5 18.5c0.975 -1.7000000000000002 4.15 5.425 6.575 8.425 0.1 0.6 0.25 0.975 -1.125 0.675 -0.125 -0.625 -0.325 -0.8 -0.325 -0.8s-3.375 -2 -4.425 -3.4250000000000003c-1.0250000000000001 -1.425 -1.225 -3.925 -0.7000000000000001 -4.875zm86.2 211.97499999999997s7.8 -89.45 -132.75 -110.07499999999999a456.925 456.925 0 0 0 -63.1 -4.675c-112.65 1.5 -116.75 -129.925 -31.874999999999996 -136.54999999999998 35.175 -2.9000000000000004 77.17500000000001 16.075 118.25000000000001 35.199999999999996 -0.17500000000000002 5.1 0.05 9.625 3.4000000000000004 13.8 3.35 4.2 16.2 8.75 20.325 11.125 4.1000000000000005 2.35 17.275 10.75 25.35 21.25 1.7500000000000002 -3.2750000000000004 16.35 -12.8 16.35 -12.8s-3.5000000000000004 0.075 -11.625 -2.9749999999999996c-8.15 -3.05 -17.825 -12.25 -18.05 -12.775 -0.25 -0.5499999999999999 -0.375 -1.375 1.5 -1.7500000000000002 1.4749999999999999 -1.225 -1.7999999999999998 -5.175 -3.25 -6.625 -1.4500000000000002 -1.4500000000000002 -11.125 -17.9 -11.35 -18.25 -0.22499999999999998 -0.4 -0.3 -0.775 -1 -1.25 -2.125 -0.675 -11.5 1 -11.5 1s-14.374999999999998 -7.074999999999999 -19.35 -22.325c0.075 2.675 -2.475 5.6000000000000005 0 11.725 -7.5 -3.175 -13.950000000000001 -8.6 -19.05 -22 -3 7.625 0 12.475 0 12.475s-17.675 -4.95 -20.5 -21.25c-3.1 7.324999999999999 0 11.725 0 11.725s-28.825 -15.049999999999999 -76.725 -15.25c-32.074999999999996 -2.9499999999999997 -38.75 -59.35 -35.75 -68.85 0 0 -46.25 -24.375 -137.32500000000002 -35.15 -91.05 -10.75 -165.7 -1.625 -165.7 -1.625s161.25 -7.75 290.425 44.574999999999996c4.3999999999999995 19.625 17.599999999999998 52.349999999999994 24.725 68.075 -20.375 14.075 -43.325 27.3 -46.9 74.25 -3.5749999999999997 46.949999999999996 36.8 88.25 86.85000000000001 89.5 47.5 2.55 80.35 2.9000000000000004 120.15 23.549999999999997 38 21 69.15 85 72.25 142.57500000000002 3.3000000000000003 -42.725 -12.725 -134.575 -87.5 -162.45000000000002 104.525 18.3 113.72500000000001 95.8 113.72500000000001 95.8zM317 141.57500000000002l-3.75 -12.125s-62.1 -11.025 -145.55 -5.1C84.25 130.275 0 159.5 0 159.5s172.4 -43.375 317 -17.925Z" fill="#ffffff" stroke-width="25"></path>
</svg>